<svg width="124.65mm" height="59.71mm" version="1.1" viewBox="0 0 124.65 59.71" xmlns="http://www.w3.org/2000/svg">
 <g transform="translate(-32.296 -70.389)">
  <path transform="scale(.26458)" d="m234.86 284.94a93.94 93.94 0 0 0-93.898 93.939 93.94 93.94 0 0 0 93.939 93.941 93.94 93.94 0 0 0 93.941-93.941 93.94 93.94 0 0 0-93.941-93.939 93.94 93.94 0 0 0-0.041 0zm65.393 47.236h4.0449c1.2165 0 2.4248 0.52049 3.2852 1.3808 0.86034 0.86033 1.3809 2.0687 1.3809 3.2852v71.762c0 1.2165-0.52052 2.4228-1.3809 3.2832-0.86033 0.86034-2.0687 1.373-3.2852 1.373h-4.0449c-1.2165 0-2.4248-0.51271-3.2852-1.373-0.84676-0.84676-1.3435-2.0354-1.3594-3.2324-3.948 3.475-8.8892 5.6992-15.266 5.6992-4.7877 0-9.2273-1.1347-13.205-3.3965h-8e-3l-8e-3 -6e-3c-3.9118-2.2688-7.0862-5.5397-9.4785-9.707l-0.016-0.016c-2.3325-4.1986-3.5944-9.0736-3.8223-14.543v-0.0156l-0.11133-3.668 0.11133-3.5586v-0.0156c0.2279-5.4697 1.491-10.307 3.8301-14.439v-6e-3l8e-3 -8e-3c2.3924-4.1674 5.5667-7.4323 9.4785-9.7012 3.9156-2.271 8.3644-3.4023 13.221-3.4023 4.2783 0 7.985 0.76415 11.059 2.377 1.7425 0.85217 2.8429 2.1658 4.1856 3.3066v-20.713c0-1.2165 0.52052-2.4248 1.3809-3.2852 0.86033-0.86036 2.0687-1.3809 3.2852-1.3808zm37.881 3.1426c-0.80214 0-1.4947 0.29358-2.0781 0.87696s-0.875 1.276-0.875 2.0781v6.2344c0 0.80214 0.29162 1.4947 0.875 2.0781s1.276 0.875 2.0781 0.875h6.2363c0.80215 0 1.4948-0.29162 2.0781-0.875 0.58337-0.58338 0.875-1.276 0.875-2.0781v-6.2344c0-0.80215-0.29163-1.4947-0.875-2.0781-0.58338-0.58338-1.276-0.87696-2.0781-0.87696zm-152.62 16.553c8.0855 0 14.058 3.2797 17.938 8.8945 1.9282-2.4296 3.9353-4.7015 6.3398-6.1328 3.0471-1.8882 6.9016-2.7617 11.486-2.7617 7.4894 0 13.413 2.3385 17.201 7.0938 3.8156 4.6975 5.625 11.212 5.625 19.334v30.303c0 1.2165-0.52053 2.4248-1.3809 3.2852-0.86034 0.86037-2.0687 1.373-3.2852 1.373h-4.0449c-1.2165 0-2.4248-0.51268-3.2852-1.373-0.86033-0.86037-1.3809-2.0687-1.3809-3.2852v-29.211c0-5.2451-1.0485-8.9506-2.8574-11.25-1.8089-2.2994-4.3995-3.4473-8.3398-3.4473-3.558 0-6.1125 1.0988-8.1289 3.3672-1.9628 2.2082-3.0703 5.6418-3.0703 10.562v29.979c0 1.2165-0.51271 2.4248-1.373 3.2852-0.86033 0.86037-2.0687 1.373-3.2852 1.373h-4.0527c-1.2165 0-2.4248-0.51268-3.2852-1.373-0.86032-0.86037-1.373-2.0687-1.373-3.2852v-29.211c0-5.2451-1.0544-8.9506-2.8633-11.25-1.8089-2.2994-4.3937-3.4473-8.334-3.4473-3.558 0-6.1106 1.0988-8.127 3.3672-1.9629 2.2082-3.0723 5.6418-3.0723 10.562v29.979c0 1.2165-0.51271 2.4248-1.373 3.2852-0.86034 0.86037-2.0745 1.373-3.291 1.373h-4.0469c-1.2165 0-2.4229-0.51268-3.2832-1.373-0.86033-0.86037-1.3809-2.0687-1.3809-3.2852v-50.98c0-1.2165 0.52053-2.4248 1.3809-3.2852 0.86034-0.86034 2.0667-1.373 3.2832-1.373h4.0469c1.2165 0 2.4307 0.51271 3.291 1.373 0.77883 0.77884 1.1532 1.8792 1.2402 2.9766 1.1303-1.057 2.1459-2.331 3.4258-3.1016 2.5494-1.6127 5.7964-2.3398 9.6562-2.3398zm200.43 2.1523c-7.6569 0-13.744 2.2256-18.266 6.6738-4.5212 4.3754-7.0748 10.281-7.6582 17.719-0.0729 0.80214-0.10938 2.5519-0.10938 5.25 0 2.5523 0.0365 4.2311 0.10938 5.0332 0.6563 7.4381 3.2099 13.38 7.6582 17.828 4.5212 4.3754 10.609 6.5644 18.266 6.5644 7.6568 0 13.71-2.1891 18.158-6.5644 4.5212-4.4483 7.1093-10.39 7.7656-17.828 0.14589-1.6043 0.21875-3.283 0.21875-5.0332 0-1.896-0.0729-3.6457-0.21875-5.25-0.58338-7.4381-3.135-13.343-7.6562-17.719-4.5212-4.4483-10.611-6.6738-18.268-6.6738zm62.787 0c-7.6569 0-13.674 2.3349-18.049 7.002-4.3754 4.667-6.8906 10.718-7.5469 18.156-0.0728 0.72923-0.10938 1.9686-0.10938 3.7188 1e-5 2.4794 0.0366 4.1582 0.10938 5.0332 0.21878 4.74 1.3488 9.0414 3.3906 12.906 2.0418 3.792 4.9581 6.783 8.75 8.9707 3.792 2.1877 8.2776 3.2812 13.455 3.2812 5.0317 0 9.406-0.98422 13.125-2.9531 3.7191-1.9689 6.5643-4.3767 8.5332-7.2207 1.9689-2.844 2.9531-5.505 2.9531-7.9844 0-0.72925-0.29162-1.3489-0.875-1.8594-0.58338-0.58338-1.276-0.875-2.0781-0.875h-3.2812c-0.87507 0-1.5696 0.21873-2.0801 0.65625-0.51044 0.43755-1.0208 1.203-1.5312 2.2969-2.5523 5.6879-7.4734 8.5312-14.766 8.5312-4.0107 0-7.5121-1.3488-10.502-4.0469-2.9169-2.6981-4.6302-6.7808-5.1406-12.25-0.0728-0.80214-0.10937-2.0435-0.10937-3.7207 0-1.8231 0.0366-3.1354 0.10937-3.9375 0.43755-5.4692 2.1508-9.5519 5.1406-12.25 2.9898-2.6981 6.4912-4.0469 10.502-4.0469 7.2922 0 12.213 2.8433 14.766 8.5312 0.51046 1.0938 1.0208 1.8594 1.5312 2.2969 0.51046 0.43754 1.205 0.65625 2.0801 0.65625h3.2812c0.80214 0 1.4947-0.29162 2.0781-0.875 0.6562-0.58338 0.94782-1.276 0.875-2.0781-0.14586-2.4794-1.203-5.1039-3.1719-7.875-1.896-2.844-4.7048-5.2153-8.4238-7.1113-3.6461-1.9689-7.984-2.9531-13.016-2.9531zm100.3 0c-4.74 0-8.9339 1.0571-12.58 3.1719-3.5732 2.1148-6.4529 4.9964-8.6406 8.6426-2.1148 3.6461-3.3906 7.7288-3.8281 12.25-0.14589 2.1877-0.21875 3.8645-0.21875 5.0312 0 1.1667 0.0729 2.8455 0.21875 5.0332 0.43752 4.74 1.7134 9.0049 3.8281 12.797 2.1877 3.792 5.1039 6.783 8.75 8.9707 3.6461 2.1147 7.8037 3.1719 12.471 3.1719 4.8129 0 8.932-0.6926 12.359-2.0781 3.5003-1.4585 6.1613-3.2101 7.9844-5.252 1.896-2.1147 2.9915-4.1561 3.2832-6.125 0.0729-0.80214-0.18224-1.4947-0.76562-2.0781-0.58338-0.58339-1.3144-0.875-2.1894-0.875h-3.2812c-0.80215 0-1.4583 0.10941-1.9688 0.32812-0.43752 0.21876-0.94787 0.61974-1.5312 1.2031-1.6043 1.7501-3.4269 3.0989-5.4688 4.0469-1.9689 0.94798-4.7758 1.4219-8.4219 1.4219-4.4483 0-8.0955-1.3488-10.939-4.0469-2.771-2.771-4.2291-6.5621-4.375-11.375v-0.65625h37.629c0.80215 0 1.4948-0.29161 2.0781-0.875 0.58338-0.58338 0.875-1.2779 0.875-2.0801v-2.9531c0-8.5319-2.262-15.276-6.7832-20.234-4.5212-4.9587-10.682-7.4394-18.484-7.4394zm-209.8 1.0938c-0.80214 0-1.4947 0.29162-2.0781 0.875s-0.875 1.276-0.875 2.0781v50.973c0 0.80214 0.29162 1.4967 0.875 2.0801s1.276 0.875 2.0781 0.875h4.0488c0.80215 0 1.4948-0.29162 2.0781-0.875 0.58337-0.58338 0.875-1.2779 0.875-2.0801v-50.973c0-0.80215-0.29163-1.4948-0.875-2.0781-0.58338-0.58338-1.276-0.875-2.0781-0.875zm150.18 0c-0.80215 0-1.4948 0.29162-2.0781 0.875s-0.875 1.276-0.875 2.0781v50.973c0 0.80214 0.29162 1.4967 0.875 2.0801s1.276 0.875 2.0781 0.875h4.0488c0.80215 0 1.4948-0.29162 2.0781-0.875s0.875-1.2779 0.875-2.0801v-31.939c0-4.0837 1.0571-7.1821 3.1719-9.2969 2.1877-2.1877 5.3226-3.2812 9.4062-3.2812h6.3438c0.80215 0 1.4967-0.29162 2.0801-0.875 0.58339-0.58338 0.875-1.276 0.875-2.0781v-3.502c0-0.80215-0.29161-1.4948-0.875-2.0781-0.58338-0.58338-1.2779-0.875-2.0801-0.875h-5.6875c-3.2815 0-5.9425 0.51034-7.9844 1.5312-2.0418 1.0209-3.7916 2.6268-5.25 4.8144v-3.3926c0-0.80215-0.29162-1.4948-0.875-2.0781s-1.276-0.875-2.0781-0.875zm-103.48 8.3144c4.8858 0 8.6424 1.4217 11.268 4.2656 2.6981 2.844 4.2656 6.5986 4.7031 11.266 0.14589 1.7502 0.21875 3.3176 0.21875 4.7031 0 1.3855-0.0729 2.882-0.21875 4.4863-0.43755 4.667-2.005 8.4216-4.7031 11.266-2.6252 2.844-6.3818 4.2656-11.268 4.2656-4.8858 0-8.6769-1.4217-11.375-4.2656-2.6252-2.844-4.1562-6.5986-4.5938-11.266-0.0729-0.80217-0.10937-2.2987-0.10937-4.4863 0-2.2606 0.0365-3.828 0.10937-4.7031 0.43754-4.667 1.9685-8.4216 4.5938-11.266 2.6981-2.844 6.4892-4.2656 11.375-4.2656zm163.09 0c4.667 0 8.3852 1.3488 11.156 4.0469 2.844 2.6252 4.2656 6.1611 4.2656 10.609v0.32813h-30.736v-0.32813c0.0729-4.3754 1.5675-7.9112 4.4844-10.609 2.9898-2.6981 6.6006-4.0469 10.83-4.0469zm-267.59 1.2598c-4.3624 4.1e-4 -7.5862 1.3264-10.105 4.0312-2e-3 4e-3 -4e-3 3e-3 -6e-3 6e-3 -2.461 2.7239-3.8746 6.449-4.1504 11.414l-0.10157 2.9668 0.10157 2.9668c0.27581 4.965 1.6894 8.6901 4.1504 11.414l6e-3 8e-3c2.5197 2.7052 5.744 4.0312 10.107 4.0312 4.1638 0 7.3703-1.2103 9.9648-3.668 2.5976-2.5327 3.9905-5.8006 4.1934-10.129v-0.0879c0.0561-0.56083 0.10352-2.0403 0.10352-4.209 0-2.0951-0.0469-3.5215-0.10352-4.0879v-0.0527l-8e-3 -0.0508c-0.20578-4.8016-1.5919-8.2872-4.0898-10.785-2.513-2.513-5.7417-3.7652-10.061-3.7656h-2e-3z" fill="#555753" style="paint-order:stroke fill markers"/>
 </g>
</svg>
